<svg width="8" height="16" viewBox="0 0 8 16" fill="none" xmlns="http://www.w3.org/2000/svg">
<path fill-rule="evenodd" clip-rule="evenodd" d="M7.00002 3.99999V11.6667C7.00002 13.14 5.80669 14.3333 4.33335 14.3333C2.86002 14.3333 1.66669 13.14 1.66669 11.6667V3.33332C1.66669 2.41332 2.41335 1.66666 3.33335 1.66666C4.25335 1.66666 5.00002 2.41332 5.00002 3.33332V10.3333C5.00002 10.7 4.70002 11 4.33335 11C3.96669 11 3.66669 10.7 3.66669 10.3333V3.99999H2.66669V10.3333C2.66669 11.2533 3.41335 12 4.33335 12C5.25335 12 6.00002 11.2533 6.00002 10.3333V3.33332C6.00002 1.85999 4.80669 0.666656 3.33335 0.666656C1.86002 0.666656 0.666687 1.85999 0.666687 3.33332V11.6667C0.666687 13.6933 2.30669 15.3333 4.33335 15.3333C6.36002 15.3333 8.00002 13.6933 8.00002 11.6667V3.99999H7.00002Z" fill="#110F24" fill-opacity="0.4"/>
</svg>
