<svg width="24" height="24" viewBox="0 0 24 24" fill="none" xmlns="http://www.w3.org/2000/svg">
<path fill-rule="evenodd" clip-rule="evenodd" d="M24 12C24 18.6274 18.6274 24 12 24C5.37258 24 0 18.6274 0 12C0 5.37258 5.37258 0 12 0C18.6274 0 24 5.37258 24 12ZM10.6078 5.31363L9.05221 5.03418H9.05158C8.47404 4.9305 7.87974 5.06484 7.39938 5.40765C6.91902 5.75046 6.59195 6.27366 6.49009 6.8622L5.00968 15.4228C4.98047 15.5909 5.01797 15.7639 5.11395 15.9039C5.20992 16.0438 5.35651 16.1392 5.52148 16.169L8.01094 16.6159C8.34097 16.6752 8.68062 16.5985 8.95517 16.4027C9.22971 16.2068 9.41667 15.9078 9.47491 15.5715L11.1202 6.0599C11.1347 5.97661 11.1329 5.89124 11.115 5.80865C11.097 5.72606 11.0633 5.64788 11.0157 5.57858C10.9682 5.50928 10.9076 5.45021 10.8376 5.40475C10.7676 5.35929 10.6895 5.32833 10.6078 5.31363ZM18.4774 8.03601L13.4998 7.141C13.3363 7.11163 13.1688 7.11537 13.0067 7.15199C12.8447 7.18862 12.6913 7.25742 12.5553 7.35447C12.4194 7.45151 12.3035 7.5749 12.2144 7.71758C12.1252 7.86027 12.0645 8.01945 12.0358 8.18604L10.3898 17.697C10.3753 17.7804 10.377 17.8659 10.3949 17.9486C10.4129 18.0313 10.4466 18.1095 10.4943 18.1789C10.5419 18.2483 10.6026 18.3074 10.6727 18.3529C10.7428 18.3984 10.821 18.4293 10.9029 18.4439L13.7026 18.9461C14.152 19.0269 14.6127 19.0167 15.0582 18.9161C15.5038 18.8155 15.9255 18.6264 16.2994 18.3597C16.6733 18.093 16.9919 17.7538 17.2371 17.3616C17.4824 16.9694 17.6494 16.5317 17.7287 16.0737L18.9905 8.78164C19.0048 8.69835 19.0029 8.61299 18.9849 8.53045C18.9669 8.4479 18.9331 8.36977 18.8855 8.30053C18.8378 8.23129 18.7773 8.17229 18.7073 8.12691C18.6372 8.08152 18.5591 8.05063 18.4774 8.03601Z" fill="white"/>
</svg>
